arm28_optimize_states
version=1
nRows=33
nColumns=21
inDegrees=yes

# SIMM Motion File Header:
name arm28_optimize_states
datacolumns 21
datarows 33
otherdata 1
range 0.20459410 0.35836734
endheader
time	r_shoulder_elev	r_elbow_flex	r_shoulder_elev_u	r_elbow_flex_u	TRIlong.activation	TRIlong.fiber_length	TRIlat.activation	TRIlat.fiber_length	TRImed.activation	TRImed.fiber_length	BIClong.activation	BIClong.fiber_length	BICshort.activation	BICshort.fiber_length	BRA.activation	BRA.fiber_length	DeltAnt.activation	DeltAnt.fiber_length	DeltPost.activation	DeltPost.fiber_length
      0.20459410	      6.23866803	     23.45758069	     15.65583912	    -37.08936693	      0.01259100	      0.14971652	      0.01259100	      0.07978797	      0.01259100	      0.07478523	      0.01759607	      0.13750346	      0.01800038	      0.14089190	      0.01496050	      0.08633150	      0.01259100	      0.15847505	      0.01343738	      0.11405126
      0.21155246	      6.34458288	     23.18889575	     14.79041332	    -40.13900140	      0.01236744	      0.14968306	      0.01236744	      0.07968500	      0.01236744	      0.07468179	      0.01693199	      0.13758324	      0.01730022	      0.14101092	      0.01452981	      0.08636078	      0.01236744	      0.15841160	      0.01314013	      0.11414088
      0.21474683	      6.39120698	     23.05843333	     14.40176461	    -41.54380790	      0.01227142	      0.14966342	      0.01227142	      0.07963464	      0.01227142	      0.07463125	      0.01664727	      0.13762263	      0.01700008	      0.14106770	      0.01434498	      0.08637462	      0.01227142	      0.15838353	      0.01301249	      0.11418013
      0.21863060	      6.44623456	     22.89376489	     13.93675158	    -43.25481507	      0.01215994	      0.14963595	      0.01215994	      0.07957082	      0.01215994	      0.07456722	      0.01631709	      0.13767281	      0.01665204	      0.14113854	      0.01413051	      0.08639177	      0.01215994	      0.15835046	      0.01286433	      0.11422650
      0.22340553	      6.51143832	     22.68219887	     13.37609450	    -45.36054598	      0.01203039	      0.14959681	      0.01203039	      0.07948844	      0.01203039	      0.07448463	      0.01593392	      0.13773791	      0.01624819	      0.14122831	      0.01388144	      0.08641335	      0.01203039	      0.15831123	      0.01269221	      0.11428141
      0.23061476	      6.60488939	     22.34371625	     12.55342408	    -48.54031304	      0.01184944	      0.14952659	      0.01184944	      0.07935591	      0.01184944	      0.07435186	      0.01539966	      0.13784317	      0.01568517	      0.14136933	      0.01353384	      0.08644686	      0.01184944	      0.15825494	      0.01245186	      0.11436001
      0.23598922	      6.67075674	     22.07646747	     11.96074222	    -50.91065558	      0.01172517	      0.14946561	      0.01172517	      0.07925073	      0.01172517	      0.07424654	      0.01503337	      0.13792693	      0.01529921	      0.14147867	      0.01329532	      0.08647251	      0.01172517	      0.15821522	      0.01228685	      0.11441529
      0.24136368	      6.73348244	     21.79649595	     11.38391641	    -53.27339174	      0.01160929	      0.14939739	      0.01160929	      0.07914014	      0.01160929	      0.07413587	      0.01469225	      0.13801509	      0.01493983	      0.14159151	      0.01307303	      0.08649868	      0.01160929	      0.15817734	      0.01213301	      0.11446792
      0.24673815	      6.79315562	     21.50384413	     10.82549439	    -55.63021432	      0.01150123	      0.14932200	      0.01150123	      0.07902418	      0.01150123	      0.07401987	      0.01437455	      0.13810753	      0.01460514	      0.14170776	      0.01286587	      0.08652532	      0.01150123	      0.15814129	      0.01198958	      0.11451792
      0.25106216	      6.83901586	     21.25921583	     10.38810358	    -57.51678557	      0.01141960	      0.14925623	      0.01141960	      0.07892700	      0.01141960	      0.07392269	      0.01413481	      0.13818490	      0.01435261	      0.14180368	      0.01270945	      0.08654704	      0.01141960	      0.15811353	      0.01188125	      0.11455632
      0.25538617	      6.88301082	     21.00644558	      9.96303376	    -59.39645660	      0.01134243	      0.14918594	      0.01134243	      0.07882639	      0.01134243	      0.07382211	      0.01390836	      0.13826487	      0.01411409	      0.14190168	      0.01256164	      0.08656899	      0.01134243	      0.15808691	      0.01177885	      0.11459313
      0.26057592	      6.93342432	     20.69236840	      9.46756312	    -61.63778304	      0.01125535	      0.14909570	      0.01125535	      0.07870115	      0.01125535	      0.07369694	      0.01365306	      0.13836419	      0.01384520	      0.14202196	      0.01239491	      0.08659560	      0.01125535	      0.15805636	      0.01166332	      0.11463529
      0.26576567	      6.98131075	     20.36670090	      8.98986933	    -63.86406463	      0.01117393	      0.14899916	      0.01117393	      0.07857105	      0.01117393	      0.07356695	      0.01341460	      0.13846700	      0.01359407	      0.14214503	      0.01223911	      0.08662242	      0.01117393	      0.15802735	      0.01155532	      0.11467532
      0.26999221	      7.01850553	     20.09297377	      8.61237874	    -65.66093597	      0.01111155	      0.14891596	      0.01111155	      0.07846155	      0.01111155	      0.07345757	      0.01323205	      0.13855318	      0.01340183	      0.14224722	      0.01211979	      0.08664437	      0.01111155	      0.15800476	      0.01147260	      0.11470638
      0.27421875	      7.05412983	     19.81167921	      8.24697573	    -67.44527931	      0.01105250	      0.14882871	      0.01105250	      0.07834891	      0.01105250	      0.07334506	      0.01305935	      0.13864151	      0.01321997	      0.14235111	      0.01200686	      0.08666638	      0.01105250	      0.15798314	      0.01139429	      0.11473613
      0.27933475	      7.09522062	     19.46114881	      7.81908808	    -69.58284752	      0.01098522	      0.14871779	      0.01098522	      0.07820840	      0.01098522	      0.07320476	      0.01286270	      0.13875118	      0.01301291	      0.14247904	      0.01187823	      0.08669306	      0.01098522	      0.15795817	      0.01130507	      0.11477043
      0.28445076	      7.13416495	     19.09974456	      7.40838530	    -71.69689839	      0.01092224	      0.14860117	      0.01092224	      0.07806340	      0.01092224	      0.07306000	      0.01267879	      0.13886367	      0.01281927	      0.14260920	      0.01175789	      0.08671969	      0.01092224	      0.15793451	      0.01122158	      0.11480292
      0.28861972	      7.16437286	     18.79728950	      7.08506041	    -73.39800183	      0.01087393	      0.14850201	      0.01087393	      0.07794199	      0.01087393	      0.07293881	      0.01253776	      0.13895729	      0.01267079	      0.14271681	      0.01166558	      0.08674132	      0.01087393	      0.15791613	      0.01115752	      0.11482812
      0.29278869	      7.19325626	     18.48778077	      6.77313147	    -75.08096573	      0.01082814	      0.14839922	      0.01082814	      0.07781769	      0.01082814	      0.07281476	      0.01240421	      0.13905262	      0.01253018	      0.14282574	      0.01157813	      0.08676284	      0.01082814	      0.15789856	      0.01109684	      0.11485220
      0.29753177	      7.22456511	     18.12717371	      6.43087502	    -76.96984175	      0.01077897	      0.14827795	      0.01077897	      0.07767284	      0.01077897	      0.07267021	      0.01226084	      0.13916302	      0.01237926	      0.14295117	      0.01148424	      0.08678713	      0.01077897	      0.15787949	      0.01103167	      0.11487831
      0.30227486	      7.25428361	     17.75767284	      6.10264983	    -78.83119727	      0.01073273	      0.14815220	      0.01073273	      0.07752438	      0.01073273	      0.07252209	      0.01212608	      0.13927532	      0.01223739	      0.14307807	      0.01139596	      0.08681116	      0.01073273	      0.15786140	      0.01097038	      0.11490308
      0.30712767	      7.28311203	     17.37056069	      5.78054957	    -80.70411458	      0.01068826	      0.14801902	      0.01068826	      0.07736886	      0.01068826	      0.07236694	      0.01199656	      0.13939206	      0.01210105	      0.14320929	      0.01131108	      0.08683542	      0.01068826	      0.15784382	      0.01091145	      0.11492711
      0.31198048	      7.31041185	     16.97443757	      5.47286864	    -82.54512473	      0.01064649	      0.14788138	      0.01064649	      0.07720975	      0.01064649	      0.07220823	      0.01187497	      0.13951048	      0.01197306	      0.14334176	      0.01123139	      0.08685927	      0.01064649	      0.15782719	      0.01085611	      0.11494986
      0.31650023	      7.33452355	     16.59753727	      5.19833151	    -84.22819252	      0.01060988	      0.14774932	      0.01060988	      0.07705841	      0.01060988	      0.07205730	      0.01176843	      0.13962213	      0.01186091	      0.14346614	      0.01116154	      0.08688106	      0.01060988	      0.15781247	      0.01080760	      0.11496995
      0.32101999	      7.35742159	     16.21309845	      4.93598310	    -85.88112774	      0.01057535	      0.14761362	      0.01057535	      0.07690412	      0.01057535	      0.07190343	      0.01166798	      0.13973501	      0.01175518	      0.14359137	      0.01109567	      0.08690238	      0.01057535	      0.15779851	      0.01076184	      0.11498903
      0.32568484	      7.37983913	     15.80856104	      4.67701918	    -87.55278243	      0.01054176	      0.14746988	      0.01054176	      0.07674187	      0.01054176	      0.07174164	      0.01157030	      0.13985265	      0.01165237	      0.14372140	      0.01103161	      0.08692385	      0.01054176	      0.15778482	      0.01071734	      0.11500771
      0.33034969	      7.40107752	     15.39630624	      4.43057320	    -89.19002383	      0.01051013	      0.14732251	      0.01051013	      0.07657666	      0.01051013	      0.07157692	      0.01147837	      0.13997125	      0.01155562	      0.14385206	      0.01097130	      0.08694470	      0.01051013	      0.15777186	      0.01067544	      0.11502541
      0.33507187	      7.42143440	     14.97129350	      4.19291759	    -90.80977684	      0.01048000	      0.14716979	      0.01048000	      0.07640650	      0.01048000	      0.07140728	      0.01139081	      0.14009218	      0.01146346	      0.14398486	      0.01091386	      0.08696511	      0.01048000	      0.15775942	      0.01063552	      0.11504237
      0.33979405	      7.44069791	     14.53872050	      3.96764989	    -92.39227922	      0.01045165	      0.14701362	      0.01045165	      0.07623351	      0.01045165	      0.07123485	      0.01130846	      0.14021381	      0.01137679	      0.14411803	      0.01085982	      0.08698478	      0.01045165	      0.15774766	      0.01059797	      0.11505841
      0.34444449	      7.45865581	     14.10550432	      3.75695815	    -93.91197280	      0.01042536	      0.14685661	      0.01042536	      0.07606051	      0.01042536	      0.07106241	      0.01123214	      0.14033413	      0.01129648	      0.14424940	      0.01080973	      0.08700334	      0.01042536	      0.15773668	      0.01056316	      0.11507337
      0.34909494	      7.47566047	     13.66530918	      3.55784457	    -95.39396418	      0.01040061	      0.14669653	      0.01040061	      0.07588497	      0.01040061	      0.07088746	      0.01116029	      0.14045485	      0.01122086	      0.14438088	      0.01076257	      0.08702106	      0.01040061	      0.15772630	      0.01053038	      0.11508753
      0.35373114	      7.49171643	     13.21969288	      3.36991050	    -96.83174027	      0.01037738	      0.14653404	      0.01037738	      0.07570757	      0.01037738	      0.07071068	      0.01109285	      0.14057544	      0.01114988	      0.14451192	      0.01071829	      0.08703782	      0.01037738	      0.15771648	      0.01049961	      0.11510090
      0.35836734	      7.50692639	     12.76750102	      3.19303074	    -98.23085166	      0.01035549	      0.14636879	      0.01035549	      0.07552790	      0.01035549	      0.07053163	      0.01102933	      0.14069614	      0.01108304	      0.14464279	      0.01067658	      0.08705362	      0.01035549	      0.15770718	      0.01047062	      0.11511356
